<svg xmlns="http://www.w3.org/2000/svg" viewBox="0 0 18 18"><path d="M7.9 9.5H12c.3 1.4 1.7 2.3 3.2 1.9.8-.2 1.4-.9 1.6-1.7.5-1.7-.8-3.2-2.4-3.2-1.2 0-2.2.9-2.4 2H7.9C7.7 7 6.5 5.8 5 5.6V4c0-.2.2-.4.4-.4H12c.3 1.4 1.7 2.3 3.2 1.9.8-.2 1.4-.9 1.6-1.7.5-1.7-.8-3.2-2.4-3.2-1.2 0-2.2.9-2.4 2H5c-.6 0-1 .4-1 1v2.1C2.3 5.8 1 7.2 1 9s1.3 3.2 3 3.4v2.1c0 .6.4 1 1 1h7.1c.3 1.4 1.7 2.3 3.2 1.9.8-.2 1.4-.9 1.6-1.7.5-1.7-.8-3.2-2.4-3.2-1.2 0-2.2.9-2.4 2H5.4c-.2 0-.4-.2-.4-.4v-1.6c1.5-.3 2.7-1.5 2.9-3zm6.6-2c.8 0 1.5.7 1.5 1.5s-.7 1.5-1.5 1.5S13 9.8 13 9s.7-1.5 1.5-1.5zm0-6c.8 0 1.5.7 1.5 1.5s-.7 1.5-1.5 1.5S13 3.8 13 3s.7-1.5 1.5-1.5zm0 12c.8 0 1.5.7 1.5 1.5s-.7 1.5-1.5 1.5S13 15.8 13 15s.7-1.5 1.5-1.5zM2 9c0-1.4 1.1-2.5 2.5-2.5S7 7.6 7 9s-1.1 2.5-2.5 2.5S2 10.4 2 9z"/></svg>