<svg class="icon" viewBox="0 0 1024 1024" xmlns="http://www.w3.org/2000/svg" width="200" height="200"><path d="M877.714 906.971c0 29.258-21.943 43.886-43.885 43.886H190.17c-21.942 0-43.885-21.943-43.885-43.886V117.03c0-21.943 21.943-43.886 43.885-43.886h394.972V0H182.857C124.343 0 73.143 51.2 73.143 109.714v804.572c0 58.514 51.2 109.714 109.714 109.714h658.286c58.514 0 109.714-51.2 109.714-109.714V365.714h-73.143v541.257z"/><path d="M292.571 219.429h146.286v73.142H292.571zm0 438.857H731.43v73.143H292.57zm0-219.429H731.43V512H292.57zm512-292.571V0H731.43v146.286H585.143v73.143h146.286v146.285h73.142V219.43h146.286v-73.143z"/></svg>