<svg class="icon" viewBox="0 0 1024 1024" xmlns="http://www.w3.org/2000/svg" width="200" height="200"><path d="M947.2 179.2c15.36 0 25.6 10.24 25.6 25.6v614.4c0 15.36-10.24 25.6-25.6 25.6H76.8c-15.36 0-25.6-10.24-25.6-25.6V204.8c0-15.36 10.24-25.6 25.6-25.6h870.4m0-51.2H76.8C33.28 128 0 161.28 0 204.8v614.4C0 862.72 33.28 896 76.8 896h870.4c43.52 0 76.8-33.28 76.8-76.8V204.8c0-43.52-33.28-76.8-76.8-76.8z"/><path d="M153.6 281.6h307.2v51.2H153.6zm-10.24 176.64h716.8v51.2h-716.8zm0 128h716.8v51.2h-716.8zm0 128h716.8v51.2h-716.8z"/></svg>