<svg class="icon" viewBox="0 0 1024 1024" xmlns="http://www.w3.org/2000/svg" width="200" height="200"><path d="M989.867 227.556h-819.2c-18.205 0-34.134-15.93-34.134-34.134s15.93-34.133 34.134-34.133h819.2c18.204 0 34.133 15.929 34.133 34.133s-15.929 34.134-34.133 34.134zm-955.734 0C15.93 227.556 0 211.626 0 193.422s15.929-34.133 34.133-34.133 34.134 15.929 34.134 34.133-15.93 34.134-34.134 34.134zm955.734 614.4h-819.2c-18.205 0-34.134-15.93-34.134-34.134s15.93-34.133 34.134-34.133h819.2c18.204 0 34.133 15.929 34.133 34.133s-15.929 34.134-34.133 34.134zm-955.734 0C15.93 841.956 0 826.026 0 807.822s15.929-34.133 34.133-34.133 34.134 15.929 34.134 34.133-15.93 34.134-34.134 34.134zm955.734-409.6H307.2c-18.204 0-34.133-15.93-34.133-34.134s15.929-34.133 34.133-34.133h682.667c18.204 0 34.133 15.929 34.133 34.133s-15.929 34.134-34.133 34.134zm-819.2 0c-18.205 0-34.134-15.93-34.134-34.134s15.93-34.133 34.134-34.133 34.133 15.929 34.133 34.133-15.929 34.134-34.133 34.134zm819.2 204.8H443.733c-18.204 0-34.133-15.93-34.133-34.134s15.929-34.133 34.133-34.133h546.134c18.204 0 34.133 15.929 34.133 34.133s-15.929 34.134-34.133 34.134zm-682.667 0c-20.48 0-34.133-15.93-34.133-34.134s15.929-34.133 34.133-34.133 34.133 15.929 34.133 34.133-15.929 34.134-34.133 34.134z"/></svg>