<svg class="icon" viewBox="0 0 1024 1024" xmlns="http://www.w3.org/2000/svg" width="200" height="200"><path d="M648.533 529.067c91.023-45.511 147.911-136.534 147.911-244.623C796.444 125.156 671.29 0 512 0S227.556 125.156 227.556 284.444c0 108.09 56.888 199.112 147.91 244.623C159.29 591.644 0 790.756 0 1024h1024c0-233.244-159.289-432.356-375.467-494.933zM284.444 284.444C284.444 159.29 386.844 56.89 512 56.89s227.556 102.4 227.556 227.555S637.156 512 512 512 284.444 409.6 284.444 284.444zM512 568.89c233.244 0 420.978 176.355 449.422 398.222H62.578C91.022 745.244 278.756 568.89 512 568.89z"/></svg>