<svg xmlns="http://www.w3.org/2000/svg" viewBox="0 0 18 18"><path class="st0" d="M9 6.1c1.6 0 2.9 1.3 2.9 2.9s-1.3 2.9-2.9 2.9S6.1 10.6 6.1 9 7.4 6.1 9 6.1M9 5C6.8 5 5 6.8 5 9s1.8 4 4 4 4-1.8 4-4-1.8-4-4-4z"/><path class="st0" d="M10 1v1c0 .6.4 1.2 1 1.4.2.1.4.1.5.2.2.1.4.2.7.2.4 0 .8-.2 1.1-.4l.7-.7 1.4 1.4-.7.7c-.4.4-.6 1.1-.3 1.7.1.2.1.3.2.5.2.6.8 1 1.4 1h1v2h-1.1c-.6 0-1.2.4-1.4 1-.1.2-.1.3-.2.5-.3.6-.2 1.3.3 1.7l.8.8-1.4 1.4-.8-.8c-.3-.3-.7-.4-1.1-.4-.2 0-.4.1-.7.1-.2.1-.3.1-.5.2-.6.2-1 .8-1 1.4V17H8v-1c0-.6-.4-1.2-1-1.4-.2-.1-.3-.1-.5-.2s-.4-.1-.6-.1c-.4 0-.8.2-1 .4l-.7.7L2.8 14l.7-.7c.5-.5.6-1.1.3-1.7-.1-.2-.2-.4-.2-.5-.2-.6-.8-1-1.4-1H1V8h.9c.6 0 1.2-.4 1.4-1 .1-.2.1-.4.2-.6.3-.6.2-1.3-.3-1.7l-.6-.6L4 2.7l.6.6c.4.3.7.4 1.1.4.2 0 .4-.1.7-.1l.6-.3c.6-.2 1-.8 1-1.4V1h2m.5-1h-3c-.3 0-.5.2-.5.5v1.4c0 .2-.1.4-.3.5-.3.1-.5.2-.7.3-.1 0-.1.1-.2.1s-.3 0-.3-.1l-1-1c-.2-.2-.3-.3-.4-.3-.1 0-.3 0-.4.1L1.6 3.7c-.2.2-.2.5 0 .7l1 1c.1.2.2.4.1.6-.1.2-.2.4-.3.7-.1.2-.3.3-.5.3H.5c-.3 0-.5.2-.5.5v3c0 .3.2.5.5.5H2c.2 0 .4.1.5.3l.3.6c.1.2.1.4-.1.6l-1 1c-.2.2-.2.5 0 .7l2.1 2.1c.1.1.2.1.4.1.1 0 .3 0 .4-.1l1.1-1.1c.1-.1.2-.1.3-.1h.2c.2.1.4.2.6.2.1.3.2.4.2.7v1.5c0 .3.2.5.5.5h3c.3 0 .5-.2.5-.5v-1.6c0-.2.1-.4.3-.5.2-.1.4-.2.6-.2.1 0 .1-.1.2-.1s.2 0 .3.1l1.1 1.1c.1.1.2.1.4.1.1 0 .3 0 .4-.1l2.1-2.1c.2-.2.2-.5 0-.7l-1.1-1.1c-.2-.2-.2-.4-.1-.6.1-.2.2-.4.2-.6.1-.2.3-.3.5-.3h1.6c.3 0 .5-.2.5-.5v-3c0-.2-.2-.4-.5-.4H16c-.2 0-.4-.1-.5-.3-.1-.2-.2-.4-.2-.6-.1-.2-.1-.4.1-.6l1.1-1.1c.2-.2.2-.5 0-.7l-2.1-2.1c-.1-.1-.2-.1-.4-.1-.1 0-.3 0-.4.1l-1 1c-.1.1-.2.1-.3.1-.1 0-.2 0-.2-.1l-.6-.3c-.4.1-.5-.1-.5-.3V.5c0-.3-.2-.5-.5-.5z"/></svg>