<svg xmlns="http://www.w3.org/2000/svg" viewBox="0 0 18 18"><path d="M15 12c-1.1 0-2 .6-2.5 1.4l-6.6-2.7c.1-.2.1-.5.1-.7 0-.4-.1-.8-.2-1.1l5.9-4c.5.7 1.4 1.1 2.3 1.1 1.7 0 3-1.3 3-3s-1.3-3-3-3-3 1.3-3 3c0 .4.1.7.2 1L5.3 8.1C4.7 7.4 3.9 7 3 7c-1.7 0-3 1.3-3 3s1.3 3 3 3c1.1 0 2-.6 2.5-1.4l6.6 2.7c0 .2-.1.4-.1.7 0 1.7 1.3 3 3 3s3-1.3 3-3-1.3-3-3-3zM14 1c1.1 0 2 .9 2 2s-.9 2-2 2-2-.9-2-2 .9-2 2-2zM3 12c-1.1 0-2-.9-2-2s.9-2 2-2 2 .9 2 2-.9 2-2 2zm12 5c-1.1 0-2-.9-2-2s.9-2 2-2 2 .9 2 2-.9 2-2 2z"/></svg>